<svg width="28" height="24" viewBox="0 0 28 24" fill="none" xmlns="http://www.w3.org/2000/svg">
<path d="M26.0003 5.33333H20.667C20.3134 5.33333 19.9742 5.47381 19.7242 5.72386C19.4741 5.97391 19.3337 6.31305 19.3337 6.66667C19.3337 7.02029 19.4741 7.35943 19.7242 7.60948C19.9742 7.85952 20.3134 8 20.667 8H26.0003C26.354 8 26.6931 7.85952 26.9431 7.60948C27.1932 7.35943 27.3337 7.02029 27.3337 6.66667C27.3337 6.31305 27.1932 5.97391 26.9431 5.72386C26.6931 5.47381 26.354 5.33333 26.0003 5.33333ZM2.00033 2.66667H26.0003C26.354 2.66667 26.6931 2.52619 26.9431 2.27614C27.1932 2.02609 27.3337 1.68696 27.3337 1.33333C27.3337 0.979711 27.1932 0.640573 26.9431 0.390524C26.6931 0.140476 26.354 0 26.0003 0H2.00033C1.64671 0 1.30757 0.140476 1.05752 0.390524C0.807472 0.640573 0.666996 0.979711 0.666996 1.33333C0.666996 1.68696 0.807472 2.02609 1.05752 2.27614C1.30757 2.52619 1.64671 2.66667 2.00033 2.66667ZM26.0003 10.6667H23.3337C22.98 10.6667 22.6409 10.8071 22.3909 11.0572C22.1408 11.3072 22.0003 11.6464 22.0003 12C22.0003 12.3536 22.1408 12.6928 22.3909 12.9428C22.6409 13.1929 22.98 13.3333 23.3337 13.3333H26.0003C26.354 13.3333 26.6931 13.1929 26.9431 12.9428C27.1932 12.6928 27.3337 12.3536 27.3337 12C27.3337 11.6464 27.1932 11.3072 26.9431 11.0572C26.6931 10.8071 26.354 10.6667 26.0003 10.6667ZM26.0003 16H23.3337C22.98 16 22.6409 16.1405 22.3909 16.3905C22.1408 16.6406 22.0003 16.9797 22.0003 17.3333C22.0003 17.687 22.1408 18.0261 22.3909 18.2761C22.6409 18.5262 22.98 18.6667 23.3337 18.6667H26.0003C26.354 18.6667 26.6931 18.5262 26.9431 18.2761C27.1932 18.0261 27.3337 17.687 27.3337 17.3333C27.3337 16.9797 27.1932 16.6406 26.9431 16.3905C26.6931 16.1405 26.354 16 26.0003 16ZM26.0003 21.3333H20.667C20.3134 21.3333 19.9742 21.4738 19.7242 21.7239C19.4741 21.9739 19.3337 22.313 19.3337 22.6667C19.3337 23.0203 19.4741 23.3594 19.7242 23.6095C19.9742 23.8595 20.3134 24 20.667 24H26.0003C26.354 24 26.6931 23.8595 26.9431 23.6095C27.1932 23.3594 27.3337 23.0203 27.3337 22.6667C27.3337 22.313 27.1932 21.9739 26.9431 21.7239C26.6931 21.4738 26.354 21.3333 26.0003 21.3333ZM10.0003 5.33333C8.15437 5.33333 6.34987 5.88072 4.81501 6.90628C3.28015 7.93184 2.08387 9.38951 1.37745 11.095C0.671036 12.8004 0.486205 14.677 0.846334 16.4875C1.20646 18.298 2.09538 19.961 3.40067 21.2663C4.70596 22.5716 6.369 23.4605 8.17949 23.8207C9.98998 24.1808 11.8666 23.996 13.572 23.2895C15.2775 22.5831 16.7352 21.3868 17.7607 19.852C18.7863 18.3171 19.3337 16.5126 19.3337 14.6667C19.3337 12.1913 18.3503 9.81734 16.6 8.067C14.8497 6.31666 12.4757 5.33333 10.0003 5.33333ZM11.3337 14.6667C11.3347 14.8421 11.301 15.0161 11.2347 15.1785C11.1683 15.341 11.0706 15.4887 10.947 15.6133L8.28033 18.28C8.02526 18.4984 7.69716 18.6126 7.36159 18.5996C7.02602 18.5867 6.7077 18.4475 6.47024 18.2101C6.23279 17.9726 6.09368 17.6543 6.08071 17.3187C6.06775 16.9832 6.18189 16.6551 6.40033 16.4L8.667 14.12V9.33333C8.667 8.97971 8.80747 8.64057 9.05752 8.39052C9.30757 8.14048 9.64671 8 10.0003 8C10.354 8 10.6931 8.14048 10.9431 8.39052C11.1932 8.64057 11.3337 8.97971 11.3337 9.33333V14.6667Z" fill="#86898D"/>
</svg>
