<svg width="21" height="23" viewBox="0 0 21 23" fill="none" xmlns="http://www.w3.org/2000/svg">
<path d="M19.7337 6.09464C18.1737 2.89464 14.6937 0.667969 10.667 0.667969C5.14699 0.667969 0.666992 4.8413 0.666992 10.0013C0.666992 13.0546 2.24033 15.7613 4.66699 17.468L6.45366 21.4013C6.86699 22.2946 8.06699 22.4546 8.69366 21.708L9.42699 20.828L10.667 19.3346C16.187 19.3346 20.667 15.1613 20.667 10.0013C20.667 8.6013 20.3337 7.2813 19.7337 6.09464ZM14.0003 11.0013H7.33366C6.78699 11.0013 6.33366 10.548 6.33366 10.0013C6.33366 9.45464 6.78699 9.0013 7.33366 9.0013H14.0003C14.547 9.0013 15.0003 9.45464 15.0003 10.0013C15.0003 10.548 14.547 11.0013 14.0003 11.0013Z" fill="#86898D"/>
</svg>
