<svg width="24" height="28" viewBox="0 0 24 28" fill="none" xmlns="http://www.w3.org/2000/svg">
<path d="M8.92769 24.5996H14.421C14.421 25.9671 13.4363 27.3346 11.6743 27.3346C9.91236 27.3346 8.92769 25.9671 8.92769 24.5996ZM22.9933 18.8217L21.4744 16.2973C20.8989 15.3414 20.5954 14.2474 20.5954 13.1356V9.54317C20.5954 4.64881 16.5936 0.667969 11.6757 0.667969C6.75785 0.667969 2.75598 4.64881 2.75598 9.54317V13.1356C2.75598 14.2474 2.45247 15.3414 1.87705 16.2973L0.358153 18.8217C-0.10603 19.5902 -0.117 20.5174 0.327957 21.2996C0.772913 22.0819 1.57766 22.5483 2.47993 22.5483H20.8742C21.7779 22.5483 22.5826 22.0805 23.0276 21.2996C23.4684 20.5188 23.4574 19.5916 22.9933 18.8217Z" fill="#86898D"/>
</svg>
