<svg viewBox="0 0 40 40" fill="none" xmlns="http://www.w3.org/2000/svg">
<path d="M2.5 22.5C1.83333 22.5 1.25 22.25 0.75 21.75C0.25 21.25 0 20.6667 0 20C0 19.3333 0.25 18.75 0.75 18.25C1.25 17.75 1.83333 17.5 2.5 17.5C3.16667 17.5 3.75 17.75 4.25 18.25C4.75 18.75 5 19.3333 5 20C5 20.6667 4.75 21.25 4.25 21.75C3.75 22.25 3.16667 22.5 2.5 22.5ZM6.15 35.95L4 33.8L12.65 25.15L14.8 27.3L6.15 35.95ZM12.65 14.75L4.05 6.15L6.2 4L14.8 12.6L12.65 14.75ZM20 40C19.3333 40 18.75 39.75 18.25 39.25C17.75 38.75 17.5 38.1667 17.5 37.5C17.5 36.8333 17.75 36.25 18.25 35.75C18.75 35.25 19.3333 35 20 35C20.6667 35 21.25 35.25 21.75 35.75C22.25 36.25 22.5 36.8333 22.5 37.5C22.5 38.1667 22.25 38.75 21.75 39.25C21.25 39.75 20.6667 40 20 40ZM20 5C19.3333 5 18.75 4.75 18.25 4.25C17.75 3.75 17.5 3.16667 17.5 2.5C17.5 1.83333 17.75 1.25 18.25 0.75C18.75 0.25 19.3333 0 20 0C20.6667 0 21.25 0.25 21.75 0.75C22.25 1.25 22.5 1.83333 22.5 2.5C22.5 3.16667 22.25 3.75 21.75 4.25C21.25 4.75 20.6667 5 20 5ZM27.35 14.75L25.2 12.6L33.8 4L35.95 6.15L27.35 14.75ZM33.8 35.9L25.2 27.3L27.35 25.15L35.95 33.75L33.8 35.9ZM37.5 22.5C36.8333 22.5 36.25 22.25 35.75 21.75C35.25 21.25 35 20.6667 35 20C35 19.3333 35.25 18.75 35.75 18.25C36.25 17.75 36.8333 17.5 37.5 17.5C38.1667 17.5 38.75 17.75 39.25 18.25C39.75 18.75 40 19.3333 40 20C40 20.6667 39.75 21.25 39.25 21.75C38.75 22.25 38.1667 22.5 37.5 22.5Z" fill="#043939"/>
</svg>
