<svg width="42" height="34" viewBox="0 0 42 34" fill="none" xmlns="http://www.w3.org/2000/svg">
<path d="M15.5837 25.4362L21.0003 21.2174L26.417 25.4362L24.3337 18.7695L29.4378 14.4987H23.1878L21.0003 8.14453L18.8128 14.4987L12.5628 14.4987L17.667 18.7695L15.5837 25.4362ZM3.29199 33.6654C2.42394 33.6654 1.68609 33.3615 1.07845 32.7539C0.470812 32.1463 0.166992 31.4084 0.166992 30.5404L0.166992 23.6654C0.166992 23.3181 0.262478 23.0143 0.453451 22.7539C0.644423 22.4935 0.896159 22.3112 1.20866 22.207C2.28505 21.8251 3.12706 21.1393 3.7347 20.1497C4.34234 19.1602 4.64616 18.1098 4.64616 16.9987C4.64616 15.9223 4.34234 14.8806 3.7347 13.8737C3.12706 12.8668 2.28505 12.1723 1.20866 11.7904C0.896159 11.6862 0.644423 11.5039 0.453451 11.2435C0.262478 10.9831 0.166992 10.6793 0.166992 10.332L0.166992 3.45703C0.166992 2.58898 0.470812 1.85113 1.07845 1.24349C1.68609 0.635851 2.42394 0.332031 3.29199 0.332031L38.7087 0.332031C39.5767 0.332031 40.3146 0.635851 40.9222 1.24349C41.5298 1.85113 41.8337 2.58898 41.8337 3.45703V10.332C41.8337 10.6793 41.7382 10.9831 41.5472 11.2435C41.3562 11.5039 41.1045 11.6862 40.792 11.7904C39.7156 12.1723 38.8736 12.8668 38.2659 13.8737C37.6583 14.8806 37.3545 15.9223 37.3545 16.9987C37.3545 18.1098 37.6583 19.1602 38.2659 20.1497C38.8736 21.1393 39.7156 21.8251 40.792 22.207C41.1045 22.3112 41.3562 22.4935 41.5472 22.7539C41.7382 23.0143 41.8337 23.3181 41.8337 23.6654V30.5404C41.8337 31.4084 41.5298 32.1463 40.9222 32.7539C40.3146 33.3615 39.5767 33.6654 38.7087 33.6654H3.29199ZM3.29199 30.5404L38.7087 30.5404V24.8633C37.3892 23.9605 36.3128 22.832 35.4795 21.4779C34.6462 20.1237 34.2295 18.6306 34.2295 16.9987C34.2295 15.3668 34.6462 13.8737 35.4795 12.5195C36.3128 11.1654 37.3892 10.0369 38.7087 9.13412V3.45703L3.29199 3.45703L3.29199 9.13412C4.64616 10.0369 5.73123 11.1654 6.5472 12.5195C7.36317 13.8737 7.77116 15.3668 7.77116 16.9987C7.77116 18.6306 7.36317 20.1237 6.5472 21.4779C5.73123 22.832 4.64616 23.9605 3.29199 24.8633L3.29199 30.5404Z" fill="#012F2F"/>
</svg>
